<svg xmlns="http://www.w3.org/2000/svg" viewBox="0 0 500 500"><g id="freepik--background-simple--inject-36"><path
      d="M443.73,103.43l-2.43-4c-20.52-33.81-57.61-54.19-96.72-51.71a100.9,100.9,0,0,0-15,2c-35.56,7.61-66.5,34.5-79.32,68.94-7.54,20.25-9.65,43.57-24,59.65-18.63,20.92-50.26,21.57-78.06,20.71s-59.45-.13-78,20.87C58.68,233.09,55,251.8,55.92,269.41c2.48,46.64,35,88.35,76.31,109.08s90,22.58,135.23,13.46c63.37-12.77,123.64-47.85,159.86-102S472.71,161.91,443.73,103.43Z"
      style="fill:#fdf4ff"
    /></g><g id="freepik--Device--inject-36"><path
      d="M132.18,86.31H261.48a18.7,18.7,0,0,1,18.7,18.7V399.19a16.68,16.68,0,0,1-16.68,16.68H132.18a18.42,18.42,0,0,1-18.42-18.42V104.74A18.42,18.42,0,0,1,132.18,86.31Z"
      style="fill:#455a64"
    /><rect x="34.81" y="170.5" width="324.31" height="161.18" rx="15.83" transform="translate(448.06 54.12) rotate(90)" style="fill:#263238" /><path
      d="M185,99.32a1.85,1.85,0,0,1,0-3.7h23.8a1.85,1.85,0,1,1,0,3.7Z"
      style="fill:#455a64"
    /><path d="M172.26,99.32a1.85,1.85,0,1,1,1.85-1.85A1.85,1.85,0,0,1,172.26,99.32Z" style="fill:#455a64" /><path
      d="M179.07,99.32a1.85,1.85,0,1,1,1.85-1.85A1.85,1.85,0,0,1,179.07,99.32Z"
      style="fill:#455a64"
    /><path d="M221.69,99.32a1.85,1.85,0,1,1,1.85-1.85A1.85,1.85,0,0,1,221.69,99.32Z" style="fill:#455a64" /><path
      d="M214.87,99.32a1.85,1.85,0,1,1,1.85-1.85A1.85,1.85,0,0,1,214.87,99.32Z"
      style="fill:#455a64"
    /><path
      d="M281.24,157.94h0a0,0,0,0,1,0,0v37.88a0,0,0,0,1,0,0h0a1.07,1.07,0,0,1-1.07-1.07V159A1.07,1.07,0,0,1,281.24,157.94Z"
      transform="translate(561.45 353.76) rotate(180)"
      style="fill:#455a64"
    /><path
      d="M113.69,181.29h.06a0,0,0,0,1,0,0v24a0,0,0,0,1,0,0h-.06a1.07,1.07,0,0,1-1.07-1.07V182.35A1.07,1.07,0,0,1,113.69,181.29Z"
      style="fill:#455a64"
    /><path
      d="M113.69,150h.06a0,0,0,0,1,0,0v24a0,0,0,0,1,0,0h-.06a1.07,1.07,0,0,1-1.07-1.07V151A1.07,1.07,0,0,1,113.69,150Z"
      style="fill:#455a64"
    /><path
      d="M113.73,126.44h0a0,0,0,0,1,0,0v11.15a0,0,0,0,1,0,0h0a.95.95,0,0,1-.95-.95v-9.26A.95.95,0,0,1,113.73,126.44Z"
      style="fill:#455a64"
    /><path
      d="M263.24,91.73H234.43a4.87,4.87,0,0,0-4.69,3.52l-1.84,6.31a5.46,5.46,0,0,1-5.25,4H173a5.48,5.48,0,0,1-5.26-4l-1.83-6.31a4.88,4.88,0,0,0-4.69-3.52H131.61A10.62,10.62,0,0,0,121,102.34v295a12.05,12.05,0,0,0,12.06,12.05h131a10.59,10.59,0,0,0,10.59-10.59V103.16A11.43,11.43,0,0,0,263.24,91.73Z"
      style="fill:#fafafa"
    /><rect x="120.99" y="270.96" width="153.68" height="37.26" style="fill:#fdf4ff" /><rect
      x="120.99"
      y="342.85"
      width="153.68"
      height="37.26"
      style="fill:#fdf4ff"
    /><rect x="137.02" y="171.02" width="126.17" height="88.39" rx="17.17" style="fill:#475569" /><g style="opacity:0.5"><rect
        x="137.02"
        y="171.02"
        width="126.17"
        height="88.39"
        rx="17.17"
        style="fill:#fff"
      /></g><rect x="130.45" y="157.32" width="136.89" height="95.9" rx="9.33" style="fill:#475569" /><path
      d="M140.35,299.13h0a8,8,0,0,1-8-8h0a8,8,0,0,1,8-8h0a8,8,0,0,1,8,8h0A8,8,0,0,1,140.35,299.13Z"
      style="fill:#e0e0e0"
    /><polygon points="137.12 290.5 140.35 285.99 143.23 290.61 140.14 289.5 137.12 290.5" style="fill:#475569" /><polygon
      points="136.99 291.23 140.18 293.01 143.31 291.36 140.18 289.99 136.99 291.23"
      style="fill:#475569"
    /><path d="M137,292c.08.06,3.19,4.09,3.19,4.09l3.13-4.09-3.13,1.69Z" style="fill:#475569" /><path
      d="M141.34,332.39h0a8,8,0,0,1-8-8h0a8,8,0,0,1,8-8h0a8,8,0,0,1,8,8h0A8,8,0,0,1,141.34,332.39Z"
      style="fill:#e0e0e0"
    /><path d="M141.34,367.89h0a8,8,0,0,1-8-8h0a8,8,0,0,1,8-8h0a8,8,0,0,1,8,8h0A8,8,0,0,1,141.34,367.89Z" style="fill:#e0e0e0" /><path
      d="M178.36,292c0,.15-5.25.26-11.71.26S155,292.1,155,292s5.24-.26,11.7-.26S178.36,291.81,178.36,292Z"
    /><path d="M204.61,296.11c0,.14-11.08.26-24.75.26s-24.76-.12-24.76-.26,11.08-.26,24.76-.26S204.61,296,204.61,296.11Z" style="fill:#e0e0e0" /><path
      d="M180.11,324c0,.15-5.24.27-11.7.27s-11.71-.12-11.71-.27,5.24-.26,11.71-.26S180.11,323.85,180.11,324Z"
    /><path d="M206.37,328.15c0,.14-11.08.26-24.76.26s-24.76-.12-24.76-.26,11.09-.26,24.76-.26S206.37,328,206.37,328.15Z" style="fill:#e0e0e0" /><path
      d="M182,359.4c0,.14-5.25.26-11.71.26s-11.7-.12-11.7-.26,5.24-.26,11.7-.26S182,359.26,182,359.4Z"
    /><path d="M208.2,363.56c0,.14-11.08.26-24.75.26s-24.76-.12-24.76-.26,11.08-.26,24.76-.26S208.2,363.41,208.2,363.56Z" style="fill:#e0e0e0" /><path
      d="M139.8,320.36l-1,4.1a1.16,1.16,0,0,0-.93.75,1.62,1.62,0,0,0-.17,1l.61-.26-.44,2.25h6.23l.46-1.76h-3.74l.31-1.64a1.65,1.65,0,0,0,1.1-1.53l-.69.11.75-3Z"
      style="fill:#475569"
    /><path d="M140.85,223.08c-.14,0-.26-10.7-.26-23.89s.12-23.88.26-23.88.26,10.69.26,23.88S141,223.08,140.85,223.08Z" /><path
      d="M155.74,223.08c-.15,0-.26-10.7-.26-23.89s.11-23.88.26-23.88S156,186,156,199.19,155.88,223.08,155.74,223.08Z"
    /><path d="M170.63,223.08c-.15,0-.26-10.7-.26-23.89s.11-23.88.26-23.88.26,10.69.26,23.88S170.77,223.08,170.63,223.08Z" /><path
      d="M185.51,223.08c-.14,0-.26-10.7-.26-23.89s.12-23.88.26-23.88.26,10.69.26,23.88S185.66,223.08,185.51,223.08Z"
    /><path d="M200.4,223.08c-.14,0-.26-10.7-.26-23.89s.12-23.88.26-23.88.26,10.69.26,23.88S200.55,223.08,200.4,223.08Z" /><path
      d="M215.29,223.08c-.14,0-.26-10.7-.26-23.89s.12-23.88.26-23.88.26,10.69.26,23.88S215.43,223.08,215.29,223.08Z"
    /><path d="M230.18,223.08c-.15,0-.26-10.7-.26-23.89s.11-23.88.26-23.88.26,10.69.26,23.88S230.32,223.08,230.18,223.08Z" /><path
      d="M245.07,223.08c-.15,0-.26-10.7-.26-23.89s.11-23.88.26-23.88.26,10.69.26,23.88S245.21,223.08,245.07,223.08Z"
    /><path d="M260,223.08c-.14,0-.26-10.7-.26-23.89s.12-23.88.26-23.88.26,10.69.26,23.88S260.1,223.08,260,223.08Z" /><path
      d="M142.33,235.39v1.1h-1v-1.07a4.72,4.72,0,0,1-2.46-.79l.54-1.21a4,4,0,0,0,1.92.7v-1.65c-1.1-.26-2.32-.63-2.32-2,0-1.05.76-1.94,2.32-2.12v-1.1h1v1.08a4.39,4.39,0,0,1,2,.6l-.49,1.21a4.22,4.22,0,0,0-1.51-.51v1.68c1.09.26,2.3.62,2.3,2C144.63,234.31,143.88,235.2,142.33,235.39Zm-1-4.37v-1.4c-.52.12-.73.41-.73.73S140.9,230.88,141.34,231Zm1.7,2.38c0-.34-.29-.53-.71-.68v1.36C142.82,234,143,233.72,143,233.4Z"
      style="fill:#fff"
    /><path
      d="M153.24,234v1.31H148v-1l2.67-2.52c.61-.58.72-.93.72-1.27,0-.54-.38-.86-1.11-.86a1.7,1.7,0,0,0-1.43.69l-1.16-.75a3.2,3.2,0,0,1,2.74-1.28c1.54,0,2.57.79,2.57,2a2.75,2.75,0,0,1-1.16,2.18l-1.59,1.5Z"
      style="fill:#fff"
    /><path
      d="M153.89,231.85c0-2.28,1.26-3.57,3-3.57s3,1.29,3,3.57-1.25,3.58-3,3.58S153.89,234.13,153.89,231.85Zm4.31,0c0-1.57-.55-2.22-1.35-2.22s-1.34.65-1.34,2.22.55,2.22,1.34,2.22S158.2,233.42,158.2,231.85Z"
      style="fill:#fff"
    /><path d="M162.33,234.42a2.29,2.29,0,0,1-.27,1l-.56,1.42h-1l.44-1.57a.86.86,0,0,1-.54-.84,1,1,0,0,1,1.91,0Z" style="fill:#fff" /><path
      d="M168.31,234v1.31h-5.22v-1l2.66-2.52c.62-.58.72-.93.72-1.27,0-.54-.37-.86-1.1-.86a1.69,1.69,0,0,0-1.43.69l-1.17-.75a3.21,3.21,0,0,1,2.75-1.28c1.54,0,2.56.79,2.56,2a2.73,2.73,0,0,1-1.15,2.18l-1.59,1.5Z"
      style="fill:#fff"
    /><path
      d="M174.08,233.2c0,1.16-.9,2.23-2.87,2.23a4.78,4.78,0,0,1-2.63-.74l.62-1.23a3.3,3.3,0,0,0,2,.62c.8,0,1.3-.32,1.3-.88s-.39-.85-1.3-.85h-.73v-1.06l1.42-1.61h-2.94V228.4h4.84v1l-1.56,1.78A2,2,0,0,1,174.08,233.2Z"
      style="fill:#fff"
    /><path d="M181.14,233.86H180v1.45h-1.56v-1.45h-3.72v-1.08L178,228.4h1.67l-3,4.15h1.86v-1.29H180v1.29h1.12Z" style="fill:#fff" /><path
      d="M181.77,234.42a1,1,0,0,1,1.91,0,1,1,0,1,1-1.91,0Z"
      style="fill:#fff"
    /><path
      d="M184.27,231.85c0-2.28,1.27-3.57,3-3.57s3,1.29,3,3.57-1.26,3.58-3,3.58S184.27,234.13,184.27,231.85Zm4.32,0c0-1.57-.55-2.22-1.35-2.22s-1.35.65-1.35,2.22.56,2.22,1.35,2.22S188.59,233.42,188.59,231.85Z"
      style="fill:#fff"
    /><path
      d="M191,231.85c0-2.28,1.26-3.57,3-3.57s3,1.29,3,3.57-1.25,3.58-3,3.58S191,234.13,191,231.85Zm4.31,0c0-1.57-.55-2.22-1.35-2.22s-1.34.65-1.34,2.22.55,2.22,1.34,2.22S195.29,233.42,195.29,231.85Z"
      style="fill:#fff"
    /><path d="M141.05,242.86h-.9v.88h-.3v-.88h-.91v-.29h.91v-.88h.3v.88h.9Z" style="fill:#fff" /><path
      d="M142.94,244.44V245h-.25v-.55a1.78,1.78,0,0,1-1.15-.44l.14-.28a1.61,1.61,0,0,0,1,.41v-1.28c-.53-.13-1.07-.29-1.07-.93,0-.47.33-.87,1.07-.93v-.56h.25V241a1.83,1.83,0,0,1,1,.3l-.12.28a1.9,1.9,0,0,0-.86-.28v1.29c.55.13,1.12.28,1.12.93C144.06,244,143.71,244.39,142.94,244.44Zm-.25-1.93V241.3c-.5,0-.72.3-.72.61S142.3,242.41,142.69,242.51Zm1,1c0-.38-.36-.51-.77-.61v1.21C143.47,244.09,143.71,243.84,143.71,243.53Z"
      style="fill:#fff"
    /><path d="M145.44,241v3.39h-.35v-3.08h-.8V241Z" style="fill:#fff" /><path
      d="M146.77,244.17a.75.75,0,0,1-.07.28l-.2.67h-.23l.16-.7a.24.24,0,0,1-.17-.25.25.25,0,0,1,.25-.26A.25.25,0,0,1,146.77,244.17Z"
      style="fill:#fff"
    /><path
      d="M149.64,244.1v.31h-2.38v-.25l1.41-1.38c.39-.38.46-.61.46-.84,0-.39-.28-.63-.79-.63a1.14,1.14,0,0,0-.93.38l-.25-.22a1.51,1.51,0,0,1,1.2-.48c.69,0,1.13.35,1.13.91a1.4,1.4,0,0,1-.56,1.07l-1.15,1.13Z"
      style="fill:#fff"
    /><path d="M152.46,241v.24L151,244.41h-.38l1.4-3.08h-1.75V242H150V241Z" style="fill:#fff" /><path
      d="M153.91,241v3.39h-.35v-3.08h-.8V241Z"
      style="fill:#fff"
    /><path d="M154.73,244.17a.25.25,0,0,1,.25-.26.26.26,0,0,1,.27.26.27.27,0,0,1-.27.27A.26.26,0,0,1,154.73,244.17Z" style="fill:#fff" /><path
      d="M158.06,243.41c0,.58-.41,1-1.24,1a1.76,1.76,0,0,1-1.22-.44l.17-.27a1.48,1.48,0,0,0,1,.39c.58,0,.88-.28.88-.69s-.27-.71-1.13-.71h-.73L156,241h1.86v.31h-1.56l-.11,1.08h.43C157.67,242.41,158.06,242.81,158.06,243.41Z"
      style="fill:#fff"
    /><path d="M159.44,241v3.39h-.35v-3.08h-.8V241Z" style="fill:#fff" /><path
      d="M163.09,244.26a.82.82,0,0,1-.54.18.68.68,0,0,1-.74-.75v-1.54h-.46v-.29h.46v-.56h.34v.56h.78v.29h-.78v1.52a.41.41,0,0,0,.44.47A.55.55,0,0,0,163,244Z"
      style="fill:#fff"
    /><path
      d="M163.37,243.14a1.3,1.3,0,1,1,1.3,1.3A1.26,1.26,0,0,1,163.37,243.14Zm2.25,0a1,1,0,1,0-1,1A.94.94,0,0,0,165.62,243.14Z"
      style="fill:#fff"
    /><path
      d="M169,240.81v3.6h-.33v-.5a1.12,1.12,0,0,1-1,.53,1.3,1.3,0,0,1,0-2.6,1.13,1.13,0,0,1,1,.5v-1.53Zm-.34,2.33a1,1,0,1,0-.95,1A.94.94,0,0,0,168.66,243.14Z"
      style="fill:#fff"
    /><path
      d="M171.89,242.83v1.58h-.33V244a1,1,0,0,1-.88.43c-.58,0-.93-.3-.93-.75s.25-.72,1-.72h.81v-.15c0-.44-.24-.68-.72-.68a1.33,1.33,0,0,0-.85.3l-.15-.26a1.63,1.63,0,0,1,1-.34A.91.91,0,0,1,171.89,242.83Zm-.35.82v-.42h-.8c-.49,0-.65.19-.65.45s.24.48.64.48A.81.81,0,0,0,171.54,243.65Z"
      style="fill:#fff"
    /><path
      d="M174.92,241.86l-1.28,2.86c-.21.5-.48.66-.84.66a.88.88,0,0,1-.63-.24l.17-.25a.64.64,0,0,0,.46.19c.23,0,.38-.11.53-.43l.11-.24-1.14-2.55h.36l1,2.17,1-2.17Z"
      style="fill:#fff"
    /><path
      d="M225,293.37v1h-.43v-1a3.14,3.14,0,0,1-2-.78l.24-.48a2.94,2.94,0,0,0,1.79.71v-2.24c-.93-.23-1.89-.52-1.89-1.64,0-.82.59-1.52,1.89-1.63v-1H225v1a3.33,3.33,0,0,1,1.73.52l-.22.51a3.15,3.15,0,0,0-1.51-.5v2.26c1,.23,2,.5,2,1.64C227,292.58,226.37,293.29,225,293.37Zm-.43-3.37v-2.13c-.87.08-1.27.53-1.27,1.06S223.89,289.82,224.59,290Zm1.78,1.79c0-.68-.62-.91-1.35-1.09v2.13C226,292.76,226.37,292.33,226.37,291.79Z"
      style="fill:#263238"
    /><path d="M231.72,287.37v6h-.61v-5.42H229.7v-.54Z" style="fill:#263238" /><path
      d="M233.14,290.35c0-1.9,1-3,2.38-3s2.38,1.13,2.38,3-1,3-2.38,3S233.14,292.25,233.14,290.35Zm4.13,0c0-1.6-.71-2.47-1.75-2.47s-1.76.87-1.76,2.47.72,2.47,1.76,2.47S237.27,291.94,237.27,290.35Z"
      style="fill:#263238"
    /><path d="M239.6,292.9a1.37,1.37,0,0,1-.11.49l-.36,1.18h-.41l.29-1.23a.46.46,0,1,1,.59-.44Z" style="fill:#263238" /><path
      d="M244.52,291.62c0,1-.73,1.76-2.16,1.76a3.11,3.11,0,0,1-2.15-.77l.3-.48a2.6,2.6,0,0,0,1.85.69c1,0,1.53-.46,1.53-1.2s-.5-1.19-1.61-1.19h-.43V290l1.66-2.07h-3v-.54h3.83v.43l-1.69,2.12C243.88,290,244.52,290.66,244.52,291.62Z"
      style="fill:#263238"
    /><path
      d="M249.34,291.57c0,1-.71,1.81-2.17,1.81a3.05,3.05,0,0,1-2.13-.77l.3-.48a2.57,2.57,0,0,0,1.83.69c1,0,1.54-.5,1.54-1.22s-.47-1.25-2-1.25h-1.27l.31-3H249v.54H246.3l-.21,1.9h.77C248.66,289.81,249.34,290.52,249.34,291.57Z"
      style="fill:#263238"
    /><path
      d="M254.59,291.55a1.86,1.86,0,0,1-2,1.83c-1.59,0-2.45-1.1-2.45-3s1.11-3.08,2.73-3.08a2.72,2.72,0,0,1,1.41.32l-.25.49a2.09,2.09,0,0,0-1.15-.28c-1.29,0-2.12.83-2.12,2.45a4.55,4.55,0,0,0,0,.48,1.92,1.92,0,0,1,1.82-1A1.8,1.8,0,0,1,254.59,291.55Zm-.6,0c0-.78-.58-1.28-1.5-1.28a1.38,1.38,0,0,0-1.53,1.3c0,.66.54,1.28,1.57,1.28A1.31,1.31,0,0,0,254,291.56Z"
      style="fill:#263238"
    /><path d="M255.39,292.9a.46.46,0,1,1,.91,0,.46.46,0,1,1-.91,0Z" style="fill:#263238" /><path
      d="M257.1,290.35c0-1.9,1-3,2.37-3s2.39,1.13,2.39,3-1,3-2.39,3S257.1,292.25,257.1,290.35Zm4.13,0c0-1.6-.72-2.47-1.76-2.47s-1.75.87-1.75,2.47.71,2.47,1.75,2.47S261.23,291.94,261.23,290.35Z"
      style="fill:#263238"
    /><path
      d="M262.73,290.35c0-1.9,1-3,2.38-3s2.38,1.13,2.38,3-1,3-2.38,3S262.73,292.25,262.73,290.35Zm4.13,0c0-1.6-.71-2.47-1.75-2.47s-1.76.87-1.76,2.47.72,2.47,1.76,2.47S266.86,291.94,266.86,290.35Z"
      style="fill:#263238"
    /><path
      d="M238.42,322.89v1H238v-1a3.22,3.22,0,0,1-2-.77l.25-.49a2.89,2.89,0,0,0,1.79.71v-2.23c-.94-.23-1.89-.52-1.89-1.65,0-.81.59-1.52,1.89-1.62v-1h.43v1a3.24,3.24,0,0,1,1.72.53l-.21.5a3.18,3.18,0,0,0-1.51-.5v2.26c1,.23,2,.5,2,1.64C240.39,322.1,239.77,322.81,238.42,322.89Zm-.43-3.37v-2.13c-.88.08-1.27.53-1.27,1.07S237.29,319.34,238,319.52Zm1.78,1.79c0-.67-.62-.9-1.35-1.08v2.12C239.35,322.29,239.77,321.85,239.77,321.31Z"
      style="fill:#263238"
    /><path d="M245.12,316.89v6h-.62v-5.42h-1.4v-.54Z" style="fill:#263238" /><path
      d="M246.54,319.87c0-1.9,1-3,2.37-3s2.39,1.13,2.39,3-1,3-2.39,3S246.54,321.77,246.54,319.87Zm4.13,0c0-1.59-.72-2.47-1.76-2.47s-1.75.88-1.75,2.47.72,2.47,1.75,2.47S250.67,321.46,250.67,319.87Z"
      style="fill:#263238"
    /><path
      d="M256,321.14c0,1-.72,1.76-2.16,1.76a3.11,3.11,0,0,1-2.15-.77l.3-.48a2.64,2.64,0,0,0,1.85.69c1,0,1.53-.46,1.53-1.2s-.5-1.19-1.61-1.19h-.42v-.45l1.65-2.07H252v-.54h3.83v.43l-1.68,2.12C255.39,319.51,256,320.18,256,321.14Z"
      style="fill:#263238"
    /><path
      d="M257.81,322.42a1.3,1.3,0,0,1-.12.5l-.35,1.17h-.41l.29-1.23a.44.44,0,0,1-.31-.44.45.45,0,0,1,.45-.46A.44.44,0,0,1,257.81,322.42Z"
      style="fill:#263238"
    /><path
      d="M262.74,321.1c0,1-.7,1.8-2.16,1.8a3.08,3.08,0,0,1-2.14-.77l.3-.48a2.59,2.59,0,0,0,1.83.69c1,0,1.55-.5,1.55-1.22s-.48-1.24-2-1.24h-1.27l.31-3h3.26v.54H259.7l-.2,1.9h.77C262.06,319.33,262.74,320,262.74,321.1Z"
      style="fill:#263238"
    /><path
      d="M268,321.07a1.86,1.86,0,0,1-2,1.83c-1.58,0-2.44-1.1-2.44-3,0-2,1.1-3.08,2.72-3.08a2.76,2.76,0,0,1,1.42.32l-.25.5a2.07,2.07,0,0,0-1.16-.29c-1.28,0-2.11.83-2.11,2.45,0,.13,0,.3,0,.48a1.92,1.92,0,0,1,1.83-1A1.81,1.81,0,0,1,268,321.07Zm-.61,0c0-.79-.58-1.29-1.5-1.29a1.38,1.38,0,0,0-1.53,1.3c0,.66.55,1.28,1.58,1.28A1.3,1.3,0,0,0,267.39,321.09Z"
      style="fill:#263238"
    /><path d="M249.23,297.17v.66l-1.65,3.77h-1.11l1.59-3.59h-1.47v.72h-.91v-1.56Z" style="fill:#455a64" /><path
      d="M249.34,301a.6.6,0,0,1,.62-.61.59.59,0,0,1,.61.61.6.6,0,0,1-.61.62A.61.61,0,0,1,249.34,301Z"
      style="fill:#455a64"
    /><path
      d="M254.39,300.21c0,.78-.58,1.47-1.85,1.47a3,3,0,0,1-1.69-.48l.41-.78a2.15,2.15,0,0,0,1.26.4c.51,0,.83-.22.83-.58s-.23-.58-1-.58h-1.14l.23-2.49h2.7V298h-1.85l-.07.84h.37C253.87,298.83,254.39,299.42,254.39,300.21Z"
      style="fill:#455a64"
    /><path
      d="M258.52,300.32c0,.83-.75,1.36-1.88,1.36s-1.86-.53-1.86-1.36a1.14,1.14,0,0,1,.67-1.05,1,1,0,0,1-.51-.91c0-.78.7-1.27,1.7-1.27s1.72.49,1.72,1.27a1,1,0,0,1-.52.91A1.13,1.13,0,0,1,258.52,300.32Zm-1,0c0-.39-.32-.63-.84-.63s-.82.24-.82.63.32.64.82.64S257.48,300.68,257.48,300.28ZM256,298.4c0,.34.26.55.68.55s.7-.21.7-.55-.28-.55-.7-.55S256,298.06,256,298.4Z"
      style="fill:#455a64"
    /><path
      d="M258.85,298.34a1.11,1.11,0,1,1,1.1,1.22A1.1,1.1,0,0,1,258.85,298.34Zm1.56,0c0-.47-.18-.7-.46-.7s-.46.23-.46.7.19.7.46.7S260.41,298.82,260.41,298.34Zm2.18-1.17h.75l-3,4.43h-.76Zm-.73,3.26a1.11,1.11,0,1,1,1.1,1.22A1.1,1.1,0,0,1,261.86,300.43Zm1.56,0c0-.47-.18-.7-.46-.7s-.46.23-.46.7.19.7.46.7S263.42,300.9,263.42,300.43Z"
      style="fill:#455a64"
    /><path d="M242.73,328.62h1.8v.8h-1.8Z" style="fill:#475569" /><path
      d="M248.78,329.4a1.52,1.52,0,0,1-1.68,1.48c-1.22,0-2-.77-2-2.2a2.16,2.16,0,0,1,2.26-2.39,2.37,2.37,0,0,1,1.24.31l-.38.75a1.5,1.5,0,0,0-.83-.22,1.18,1.18,0,0,0-1.25,1.29,1.51,1.51,0,0,1,1.1-.4A1.41,1.41,0,0,1,248.78,329.4Zm-1,.05a.67.67,0,0,0-.75-.66.7.7,0,0,0-.77.66c0,.38.28.66.78.66A.66.66,0,0,0,247.79,329.45Z"
      style="fill:#475569"
    /><path d="M249.19,330.23a.62.62,0,0,1,1.23,0,.62.62,0,1,1-1.23,0Z" style="fill:#475569" /><path
      d="M254.26,330v.83h-3.35v-.66l1.71-1.62c.39-.37.46-.6.46-.81s-.24-.55-.71-.55a1.08,1.08,0,0,0-.92.44l-.75-.48a2.09,2.09,0,0,1,1.77-.83c1,0,1.64.51,1.64,1.31a1.75,1.75,0,0,1-.74,1.4l-1,1Z"
      style="fill:#475569"
    /><path
      d="M258.4,329.52c0,.83-.75,1.36-1.88,1.36s-1.86-.53-1.86-1.36a1.14,1.14,0,0,1,.67-1,1,1,0,0,1-.51-.91c0-.78.69-1.27,1.7-1.27s1.72.49,1.72,1.27a1,1,0,0,1-.52.91A1.13,1.13,0,0,1,258.4,329.52Zm-1,0c0-.4-.33-.64-.84-.64s-.82.24-.82.64.31.64.82.64S257.36,329.88,257.36,329.49Zm-1.52-1.89c0,.34.26.55.68.55s.7-.21.7-.55-.28-.55-.7-.55S255.84,327.26,255.84,327.6Z"
      style="fill:#475569"
    /><path
      d="M258.73,327.54a1.1,1.1,0,1,1,1.1,1.22A1.1,1.1,0,0,1,258.73,327.54Zm1.56,0c0-.47-.18-.7-.46-.7s-.46.23-.46.7.19.7.46.7S260.29,328,260.29,327.54Zm2.18-1.17h.75l-3,4.43h-.75Zm-.73,3.26a1.11,1.11,0,1,1,1.1,1.22A1.1,1.1,0,0,1,261.74,329.63Zm1.56,0c0-.47-.19-.7-.46-.7s-.47.23-.47.7.19.7.47.7S263.3,330.1,263.3,329.63Z"
      style="fill:#475569"
    /><path
      d="M134.22,137.34a3.29,3.29,0,0,1,5.71-2l-.89.82a1.92,1.92,0,0,0-1.5-.7,1.92,1.92,0,0,0,0,3.83,1.89,1.89,0,0,0,1.5-.71l.89.82a3.29,3.29,0,0,1-5.71-2Z"
      style="fill:#263238"
    /><path
      d="M143.63,135.66v1.23l-.3,0a1.14,1.14,0,0,0-1.23,1.29v2.17h-1.33v-4.6h1.28v.61A1.83,1.83,0,0,1,143.63,135.66Z"
      style="fill:#263238"
    /><path
      d="M149.15,135.73l-2.08,4.88a1.89,1.89,0,0,1-1.9,1.44,2,2,0,0,1-1.29-.42l.49-.95a1.21,1.21,0,0,0,.75.3c.37,0,.57-.17.75-.58l0,0-2-4.63h1.38l1.29,3.12,1.3-3.12Z"
      style="fill:#263238"
    /><path
      d="M154.7,138a2.23,2.23,0,0,1-2.29,2.36,1.79,1.79,0,0,1-1.38-.55V142H149.7v-6.25H151v.53a1.79,1.79,0,0,1,1.44-.6A2.23,2.23,0,0,1,154.7,138Zm-1.35,0a1.17,1.17,0,1,0-1.17,1.27A1.16,1.16,0,0,0,153.35,138Z"
      style="fill:#263238"
    /><path
      d="M158.56,140.1a1.89,1.89,0,0,1-1.09.29,1.51,1.51,0,0,1-1.71-1.65v-1.88h-.71v-1h.71v-1.12h1.33v1.12h1.14v1h-1.14v1.87a.53.53,0,0,0,.57.6.85.85,0,0,0,.54-.17Z"
      style="fill:#263238"
    /><path
      d="M158.83,138a2.53,2.53,0,1,1,2.52,2.36A2.36,2.36,0,0,1,158.83,138Zm3.7,0a1.18,1.18,0,1,0-1.18,1.27A1.17,1.17,0,0,0,162.53,138Z"
      style="fill:#263238"
    /><path
      d="M172.23,136.4c0,1.27-.93,2-2.45,2h-1.6v1.89h-.64v-6h2.24C171.3,134.34,172.23,135.11,172.23,136.4Zm-.64,0c0-1-.63-1.51-1.83-1.51h-1.58v3h1.58C171,137.88,171.59,137.34,171.59,136.4Z"
      style="fill:#263238"
    /><path
      d="M173,138.08a2.29,2.29,0,1,1,2.29,2.29A2.21,2.21,0,0,1,173,138.08Zm4,0a1.68,1.68,0,1,0-1.67,1.75A1.64,1.64,0,0,0,177,138.08Z"
      style="fill:#263238"
    /><path d="M181.07,135.8v.59h-.15a1.45,1.45,0,0,0-1.51,1.66v2.29h-.61v-4.5h.58v.88A1.7,1.7,0,0,1,181.07,135.8Z" style="fill:#263238" /><path
      d="M184.72,140.05a1.39,1.39,0,0,1-.94.32,1.19,1.19,0,0,1-1.32-1.31v-2.72h-.8v-.51h.8v-1h.61v1h1.36v.51h-1.36V139a.72.72,0,0,0,.77.82,1,1,0,0,0,.67-.23Z"
      style="fill:#263238"
    /><path
      d="M186.52,135.3v.53h1.38v.51h-1.36v4h-.61v-4h-.8v-.51h.8v-.55a1.24,1.24,0,0,1,1.36-1.34,1.51,1.51,0,0,1,.9.28l-.21.46a1,1,0,0,0-.67-.22C186.79,134.46,186.52,134.75,186.52,135.3Z"
      style="fill:#263238"
    /><path
      d="M188.2,138.08a2.29,2.29,0,1,1,2.29,2.29A2.21,2.21,0,0,1,188.2,138.08Zm4,0a1.67,1.67,0,1,0-1.66,1.75A1.64,1.64,0,0,0,192.15,138.08Z"
      style="fill:#263238"
    /><path d="M194,134h.6v6.34H194Z" style="fill:#263238" /><path
      d="M196.17,134.41a.44.44,0,0,1,.45-.42.43.43,0,0,1,.44.41.44.44,0,0,1-.44.45A.45.45,0,0,1,196.17,134.41Zm.14,1.42h.61v4.5h-.61Z"
      style="fill:#263238"
    /><path
      d="M198.15,138.08a2.29,2.29,0,1,1,2.29,2.29A2.21,2.21,0,0,1,198.15,138.08Zm4,0a1.67,1.67,0,1,0-1.67,1.75A1.64,1.64,0,0,0,202.11,138.08Z"
      style="fill:#263238"
    /><path d="M261.59,139.11a1.3,1.3,0,1,1-1.3-1.3A1.3,1.3,0,0,1,261.59,139.11Z" style="fill:#263238" /><path
      d="M261.59,135.27a1.3,1.3,0,1,1-1.3-1.3A1.3,1.3,0,0,1,261.59,135.27Z"
      style="fill:#263238"
    /><path d="M261.59,131.43a1.3,1.3,0,1,1-1.3-1.3A1.3,1.3,0,0,1,261.59,131.43Z" style="fill:#263238" /><path
      d="M266.35,301.43H265a.43.43,0,0,1-.38-.64l.69-1.18.68-1.18a.43.43,0,0,1,.74,0l.68,1.18.68,1.18a.42.42,0,0,1-.37.64Z"
      style="fill:#455a64"
    /><path
      d="M228,361v1h-.43v-1a3.19,3.19,0,0,1-2-.77l.24-.49a3,3,0,0,0,1.79.72v-2.24c-.94-.23-1.89-.52-1.89-1.65,0-.81.59-1.52,1.89-1.62v-1H228v1a3.24,3.24,0,0,1,1.72.53l-.21.5a3.15,3.15,0,0,0-1.51-.5v2.26c1,.23,2,.5,2,1.64C230,360.2,229.35,360.92,228,361Zm-.43-3.37v-2.13c-.88.08-1.27.53-1.27,1.07S226.87,357.44,227.57,357.62Zm1.78,1.79c0-.67-.62-.9-1.35-1.08v2.13C228.93,360.39,229.35,360,229.35,359.41Z"
      style="fill:#263238"
    /><path d="M234.7,355v6h-.61v-5.42h-1.41V355Z" style="fill:#263238" /><path
      d="M240.17,359.2c0,1-.71,1.8-2.17,1.8a3.05,3.05,0,0,1-2.13-.77l.29-.48a2.61,2.61,0,0,0,1.83.69c1,0,1.55-.5,1.55-1.22s-.47-1.24-2-1.24h-1.27l.31-3h3.26v.54h-2.72l-.21,1.9h.77C239.48,357.43,240.17,358.14,240.17,359.2Z"
      style="fill:#263238"
    /><path
      d="M241.86,360.52a1.3,1.3,0,0,1-.12.5l-.36,1.17H241l.29-1.23a.43.43,0,0,1-.3-.44.44.44,0,0,1,.45-.46A.45.45,0,0,1,241.86,360.52Z"
      style="fill:#263238"
    /><path
      d="M246.77,359.24c0,1-.72,1.76-2.16,1.76a3.11,3.11,0,0,1-2.15-.77l.3-.48a2.64,2.64,0,0,0,1.85.69c1,0,1.53-.46,1.53-1.2s-.5-1.18-1.61-1.18h-.42v-.46l1.65-2.07h-3V355h3.83v.43l-1.68,2.12C246.13,357.61,246.77,358.28,246.77,359.24Z"
      style="fill:#263238"
    /><path
      d="M251.59,359.2c0,1-.7,1.8-2.16,1.8a3.08,3.08,0,0,1-2.14-.77l.3-.48a2.57,2.57,0,0,0,1.83.69c1,0,1.55-.5,1.55-1.22s-.48-1.24-2-1.24h-1.27l.31-3h3.26v.54h-2.73l-.2,1.9h.76C250.91,357.43,251.59,358.14,251.59,359.2Z"
      style="fill:#263238"
    /><path
      d="M256.85,359.17a1.86,1.86,0,0,1-2,1.83c-1.58,0-2.44-1.1-2.44-3s1.11-3.08,2.72-3.08a2.76,2.76,0,0,1,1.42.32l-.25.5a2.07,2.07,0,0,0-1.16-.29c-1.28,0-2.11.83-2.11,2.45a4.4,4.4,0,0,0,0,.48,1.9,1.9,0,0,1,1.82-1A1.81,1.81,0,0,1,256.85,359.17Zm-.61,0c0-.79-.58-1.29-1.5-1.29a1.38,1.38,0,0,0-1.53,1.3c0,.66.55,1.28,1.58,1.28A1.3,1.3,0,0,0,256.24,359.19Z"
      style="fill:#263238"
    /><path d="M257.65,360.52a.45.45,0,0,1,.45-.46.47.47,0,0,1,0,.93A.45.45,0,0,1,257.65,360.52Z" style="fill:#263238" /><path
      d="M261,355v6h-.61v-5.42H259V355Z"
      style="fill:#263238"
    /><path
      d="M262.41,358c0-1.9,1-3,2.38-3s2.38,1.13,2.38,3-1,3-2.38,3S262.41,359.87,262.41,358Zm4.13,0c0-1.59-.71-2.47-1.75-2.47S263,356.38,263,358s.71,2.47,1.75,2.47S266.54,359.56,266.54,358Z"
      style="fill:#263238"
    /><path d="M247,364.79v.67l-1.64,3.77h-1.12l1.59-3.6h-1.47v.72h-.91v-1.56Z" style="fill:#455a64" /><path
      d="M247.1,368.66a.62.62,0,0,1,1.23,0,.62.62,0,1,1-1.23,0Z"
      style="fill:#455a64"
    /><path
      d="M252.14,367.83c0,.79-.57,1.47-1.84,1.47a3.08,3.08,0,0,1-1.69-.47l.4-.79a2.1,2.1,0,0,0,1.26.4c.52,0,.83-.22.83-.58s-.23-.57-1-.57h-1.13l.22-2.5h2.71v.83H250l-.07.84h.36C251.62,366.46,252.14,367.05,252.14,367.83Z"
      style="fill:#455a64"
    /><path
      d="M256.27,367.94c0,.84-.74,1.36-1.87,1.36s-1.86-.52-1.86-1.36a1.11,1.11,0,0,1,.67-1,1,1,0,0,1-.52-.92c0-.78.7-1.26,1.71-1.26s1.71.48,1.71,1.26a1.06,1.06,0,0,1-.51.92A1.11,1.11,0,0,1,256.27,367.94Zm-1,0c0-.39-.32-.63-.83-.63s-.83.24-.83.63.32.64.83.64S255.23,368.3,255.23,367.91ZM253.71,366c0,.33.27.54.69.54s.7-.21.7-.54-.28-.56-.7-.56S253.71,365.68,253.71,366Z"
      style="fill:#455a64"
    /><path
      d="M256.6,366a1.11,1.11,0,0,1,1.11-1.23A1.23,1.23,0,1,1,256.6,366Zm1.57,0c0-.48-.19-.71-.46-.71s-.47.24-.47.71.19.7.47.7S258.17,366.44,258.17,366Zm2.18-1.18h.75l-3,4.44h-.75Zm-.73,3.26a1.11,1.11,0,1,1,2.2,0,1.11,1.11,0,1,1-2.2,0Zm1.56,0c0-.46-.19-.7-.47-.7s-.46.23-.46.7.19.71.46.71S261.18,368.52,261.18,368.05Z"
      style="fill:#455a64"
    /><path
      d="M265.23,369.06h-1.36a.43.43,0,0,1-.37-.64l.68-1.18.68-1.18a.42.42,0,0,1,.74,0l.68,1.18.68,1.18a.43.43,0,0,1-.37.64Z"
      style="fill:#455a64"
    /><path
      d="M266.35,327.59h1.36a.42.42,0,0,1,.37.64l-.68,1.18-.68,1.18a.43.43,0,0,1-.74,0l-.68-1.18-.69-1.18a.43.43,0,0,1,.38-.64Z"
      style="fill:#475569"
    /><path
      d="M253.49,242.05h-4.21a2.93,2.93,0,0,1-2.93-2.93v-3a2.94,2.94,0,0,1,2.93-2.94h4.21a2.94,2.94,0,0,1,2.93,2.94v3A2.93,2.93,0,0,1,253.49,242.05Zm-4.21-7.88a1.94,1.94,0,0,0-1.93,1.94v3a1.93,1.93,0,0,0,1.93,1.93h4.21a1.92,1.92,0,0,0,1.93-1.93v-3a1.93,1.93,0,0,0-1.93-1.94Z"
      style="fill:#fff"
    /><path d="M249.22,240.16a.51.51,0,0,1-.5-.5v-2.31a.5.5,0,0,1,.5-.5.5.5,0,0,1,.5.5v2.31A.5.5,0,0,1,249.22,240.16Z" style="fill:#fff" /><path
      d="M251.13,240.16a.5.5,0,0,1-.5-.5V236.2a.5.5,0,0,1,.5-.5.5.5,0,0,1,.5.5v3.46A.51.51,0,0,1,251.13,240.16Z"
      style="fill:#fff"
    /><path d="M253.43,240.16a.51.51,0,0,1-.5-.5v-4.61a.5.5,0,0,1,.5-.5.5.5,0,0,1,.5.5v4.61A.5.5,0,0,1,253.43,240.16Z" style="fill:#fff" /><path
      d="M144.71,361.62a2.18,2.18,0,0,1-.35-3.67,1.88,1.88,0,0,0-1.61-2v-1.23h-1.14v1.15H141v-1.15h-1.15v1.15h-1.76v1.14h.72v5.56H138v1.14h1.84v1.34H141v-1.34h.65v1.34h1.14v-1.38A2,2,0,0,0,144.71,361.62Zm-4.49-4.57h1.55c.86,0,1.34.36,1.34,1.09s-.48,1.07-1.34,1.07H140v-2.16Zm1.8,5.56h-2v-2.27h2c.93,0,1.44.35,1.44,1.14S143,362.61,142,362.61Z"
      style="fill:#475569"
    /><path
      d="M258.43,180.74l-.24-.24-.67-.72-2.62-2.86.13,0c-.71,1.29-1.6,2.87-2.62,4.71l-.11.21-.1-.22L247.05,170h.31c-.85,2.43-1.78,5.11-2.78,8v0c-.39,3.05-.82,6.34-1.26,9.8v0l0,0-2.84,5.11-.05.09-.1,0-2.84.62h-.06l-7.56-.19.16-.06-6.94,5.93-.28.24-.11-.35c-.47-1.52-1-3.07-1.38-4.73,0-.11,0-.2-.06-.34V194s0,.06,0,.08.06,0,0,0a2.88,2.88,0,0,0-.53.13c-.39.13-.77.3-1.16.47-.77.34-1.54.72-2.31,1.12l-.16.08-.13-.13c-.9-.89-1.88-1.87-2.86-2.86l.35,0c-1,.89-2.14,1.87-3.27,2.86L211,196l-.16-.22-3.68-4.9.46-.11c-.45,2.34-.94,4.83-1.43,7.35l0,.14-.13.05-.08,0-2.89,1.2.09-.06-3.37,3.27,0-.05-2.66,4.07,0,.05,0,0-2.86,1.64,0,0h0l-4.08.81-.16,0-.1-.13c-.61-.83-1.23-1.65-1.83-2.47l.25.1-6.13,1.23-.14,0-.1-.11-8.15-9.81.38,0L165.94,212l-.17.28-.19-.26-2.44-3.36.31,0-4.3,4.48-.15.16-.13-.17-3.46-4.5h.26l-6.56,6.69-.09.1-.1-.1-2.44-2.43h.18l-2.26,2.41-.08.09-.08-.09-4.21-5L139,209l-.35-.46.4.42,1.11,1.27,4.29,4.95h-.16l2.23-2.44.09-.09.09.09,2.46,2.41h-.19l6.5-6.74.14-.14.12.16,3.49,4.48-.29,0,4.28-4.5.16-.17.15.19,2.45,3.35-.35,0L173.72,198l.17-.29.21.26,8.18,9.79-.24-.08,6.12-1.25.16,0,.09.13,1.84,2.46-.25-.1,4.08-.81-.08,0,2.86-1.64-.09.08q1.32-2,2.65-4.07l0,0,0,0,3.36-3.27,0,0,0,0,2.89-1.19.08,0-.16.19c.49-2.52,1-5,1.43-7.35l.12-.57.35.47,3.67,4.9-.38,0,3.27-2.86.18-.16.17.17,2.86,2.86-.3,0c.77-.4,1.55-.78,2.33-1.13.4-.18.8-.35,1.21-.49a2.69,2.69,0,0,1,.7-.15.45.45,0,0,1,.34.14c.06.05.08.22.08.23v.06c0,.07,0,.19,0,.28.39,1.6.89,3.17,1.36,4.68l-.4-.12L229.7,193l.07-.06h.09l7.57.21h-.06l2.85-.6-.15.11,2.87-5.1,0,.07c.46-3.45.9-6.74,1.3-9.79v0c1-2.85,2-5.53,2.83-8l.14-.39.17.38,5.06,11.66h-.21c1-1.83,1.95-3.4,2.68-4.68l.06-.1.07.09c1.12,1.26,2,2.24,2.56,2.91l.65.76C258.37,180.65,258.44,180.73,258.43,180.74Z"
      style="fill:#fff"
    /><polygon
      points="157.26 220.16 154.58 218.01 152.08 220.03 145.94 220.03 140.53 215.6 141.17 214.82 146.3 219.03 151.72 219.03 154.58 216.73 157.26 218.88 163.8 213.69 169.09 216.38 182.28 213.76 188.02 216.37 195.47 213.81 199.45 212.17 208.99 209.17 212.21 212.83 215.82 214.1 223.97 210.58 227.85 204.87 230.78 210.27 235.69 210.08 240.22 207.06 243.05 209.45 249.12 202.07 253.71 209.93 257.53 210.83 259.67 212.44 259.07 213.24 257.01 211.7 253.06 210.81 248.98 203.81 243.18 210.87 240.15 208.31 236.01 211.07 230.2 211.29 227.76 206.79 224.63 211.39 215.86 215.17 211.63 213.68 208.67 210.32 199.79 213.11 195.82 214.75 187.97 217.44 182.16 214.81 168.95 217.43 163.92 214.88 157.26 220.16"
      style="fill:#455a64"
    /><path d="M274.45,271c0,.15-34.29.26-76.58.26s-76.58-.11-76.58-.26,34.28-.26,76.58-.26S274.45,270.82,274.45,271Z" /><path
      d="M274.45,308.23c0,.14-34.29.26-76.58.26s-76.58-.12-76.58-.26,34.28-.26,76.58-.26S274.45,308.08,274.45,308.23Z"
      style="fill:#e0e0e0"
    /><path
      d="M274.45,342.85c0,.14-34.29.26-76.58.26s-76.58-.12-76.58-.26,34.28-.26,76.58-.26S274.45,342.7,274.45,342.85Z"
      style="fill:#e0e0e0"
    /><path d="M274.45,380.11c0,.14-34.29.26-76.58.26s-76.58-.12-76.58-.26,34.28-.26,76.58-.26S274.45,380,274.45,380.11Z" style="fill:#e0e0e0" /><path
      d="M257.49,403.38h-24a8.8,8.8,0,0,1-8.8-8.8h0a8.8,8.8,0,0,1,8.8-8.81h24a8.8,8.8,0,0,1,8.8,8.81h0A8.8,8.8,0,0,1,257.49,403.38Z"
      style="fill:#475569"
    /><path
      d="M243.26,395.45c0,.77-.61,1.21-1.77,1.21H239.2v-4.43h2.16c1.11,0,1.68.46,1.68,1.15a1.13,1.13,0,0,0,.22,2.07Zm-3-2.45v1.05h1c.5,0,.77-.18.77-.53s-.27-.52-.77-.52Zm2,2.34c0-.37-.29-.55-.82-.55h-1.19v1.1h1.19C241.94,395.89,242.23,395.72,242.23,395.34Z"
      style="fill:#fff"
    /><path d="M244,394.71v-2.48h1v2.44c0,.84.37,1.19,1,1.19s1-.35,1-1.19v-2.44h1v2.48a2,2,0,1,1-4,0Z" style="fill:#fff" /><path
      d="M251.1,395.09v1.57h-1v-1.58l-1.71-2.85h1.09l1.18,2,1.19-2h1Z"
      style="fill:#fff"
    /><rect x="234.41" y="98.99" width="1.56" height="2.19" style="fill:#263238" /><rect
      x="236.95"
      y="98.01"
      width="1.56"
      height="3.17"
      style="fill:#263238"
    /><rect x="239.5" y="97.28" width="1.56" height="3.9" style="fill:#263238" /><rect
      x="242.04"
      y="95.87"
      width="1.56"
      height="5.31"
      style="fill:#263238"
    /><path
      d="M266.68,101.29h-7.85a.56.56,0,0,1-.56-.56v-3.9a.56.56,0,0,1,.56-.56h7.85a.14.14,0,0,1,.1,0,.18.18,0,0,1,0,.1V97.7h.84a.14.14,0,0,1,.14.14v1.88a.14.14,0,0,1-.14.14h-.84v1.29A.14.14,0,0,1,266.68,101.29Zm-.15-4.74h-7.7a.27.27,0,0,0-.27.28v3.9a.27.27,0,0,0,.27.27h7.7V99.72a.15.15,0,0,1,.15-.15h.84V98h-.84a.15.15,0,0,1-.15-.14Z"
      style="fill:#263238"
    /><polygon points="259.2 100.36 259.2 97.19 265.89 97.19 265.89 98.62 265.89 98.93 265.89 100.36 259.2 100.36" style="fill:#263238" /><path
      d="M251.08,101a.57.57,0,1,0-.57.57A.56.56,0,0,0,251.08,101Z"
      style="fill:#263238"
    /><path d="M248.55,99.61l.74.73a1.71,1.71,0,0,1,2.44,0l.74-.73a2.78,2.78,0,0,0-3.92,0Z" style="fill:#263238" /><path
      d="M250.51,97.17a4.38,4.38,0,0,0-3.11,1.29l.73.73a3.36,3.36,0,0,1,4.76,0l.73-.73A4.38,4.38,0,0,0,250.51,97.17Z"
      style="fill:#263238"
    /><path d="M246.21,97.27l.73.73a5,5,0,0,1,7.14,0l.73-.73a6.06,6.06,0,0,0-8.6,0Z" style="fill:#263238" /></g></svg>
